<svg xmlns="http://www.w3.org/2000/svg" viewBox="0 0 123 118" width="100%" height="100%">
  <g transform="scale(0.125) translate(0.000000, 944.000000) scale(0.100000, -0.100000)">
    <path d="M1440 8520 l-32 -40 -84 0 -85 0 -139 -140 c-138 -137 -140 -140
-140 -184 0 -40 -4 -48 -40 -76 l-40 -32 0 -88 0 -88 -40 -32 -40 -32 0 -168
0 -168 40 -32 40 -32 0 -88 0 -88 40 -32 c36 -29 40 -36 40 -77 0 -41 4 -49
59 -104 54 -53 63 -59 102 -59 40 0 47 -5 119 -80 l77 -80 85 0 86 0 32 -40
32 -40 128 0 128 0 32 40 32 40 88 0 88 0 32 40 c28 36 36 40 76 40 44 0 47 2
184 140 138 137 140 140 140 184 0 40 4 48 40 76 l40 32 0 88 0 88 40 32 c37
29 40 36 40 80 0 44 -3 51 -40 80 l-40 32 0 128 0 128 -40 32 c-36 28 -40 36
-40 76 0 44 -1 45 -180 224 -179 179 -180 180 -224 180 -40 0 -48 4 -76 40
l-32 40 -248 0 -248 0 -32 -40z M1360 6360 l-32 -40 -85 0 -85 0 -118 -120
c-113 -116 -119 -120 -160 -120 -38 0 -47 -6 -101 -59 -53 -54 -59 -63 -59
-102 0 -40 -5 -47 -80 -119 l-80 -77 0 -85 0 -86 -40 -32 -40 -32 0 -128 0
-128 -40 -32 -40 -32 0 -248 0 -248 40 -32 40 -32 0 -168 0 -168 40 -32 40
-32 0 -88 0 -88 40 -32 40 -32 0 -88 0 -88 40 -32 c36 -29 40 -36 40 -78 0
-44 3 -48 80 -122 77 -74 80 -78 80 -122 0 -42 4 -49 40 -78 36 -29 40 -36 40
-78 0 -44 3 -48 80 -122 75 -72 80 -79 80 -118 l0 -42 580 -580 580 -580 42 0
c39 0 46 -5 118 -80 73 -76 79 -80 120 -80 41 0 47 -4 120 -80 74 -77 78 -80
122 -80 42 0 49 -4 78 -40 29 -36 36 -40 78 -40 44 0 48 -3 122 -80 74 -77 78
-80 122 -80 42 0 49 -4 78 -40 29 -37 36 -40 80 -40 44 0 51 -3 80 -40 29 -37
36 -40 80 -40 44 0 51 -3 80 -40 29 -37 36 -40 80 -40 44 0 51 -3 80 -40 29
-37 36 -40 80 -40 44 0 51 -3 80 -40 29 -37 36 -40 80 -40 44 0 51 -3 80 -40
29 -37 36 -40 80 -40 44 0 51 -3 80 -40 29 -37 36 -40 80 -40 44 0 51 -3 80
-40 29 -37 36 -40 79 -40 47 0 71 12 71 37 0 8 -142 155 -315 328 -311 310
-315 315 -315 355 0 40 -4 45 -360 400 -357 356 -360 360 -360 400 0 40 -5 46
-200 240 l-200 199 0 82 0 82 -80 77 c-75 72 -80 79 -80 119 0 42 -3 46 -160
201 -160 158 -160 158 -160 203 0 41 -4 48 -40 77 l-40 32 0 88 0 88 -40 32
c-37 29 -40 36 -40 80 0 44 -3 51 -40 80 -37 29 -40 36 -40 80 0 44 -3 51 -40
80 l-40 32 0 88 0 88 -40 32 c-37 29 -40 36 -40 80 0 44 -3 51 -40 80 l-40 32
0 448 0 448 40 32 c37 29 40 36 40 80 0 44 3 51 40 80 37 29 40 36 40 80 0 44
3 51 40 80 37 29 40 36 40 79 0 66 19 81 98 81 l62 0 0 -64 c0 -63 -1 -65 -40
-96 -39 -31 -40 -33 -40 -96 0 -55 -3 -64 -18 -64 -10 0 -28 -7 -40 -16 -20
-13 -23 -23 -20 -66 3 -58 25 -81 55 -62 14 8 19 27 21 78 3 57 5 66 22 66 10
0 46 26 79 59 l61 58 0 102 0 101 63 0 c83 0 97 14 97 98 0 55 2 62 20 62 22
0 210 181 210 202 0 30 -25 38 -111 38 l-87 0 -32 40 -32 40 -88 0 -88 0 -32
40 -32 40 -408 0 -408 0 -32 -40z m1108 -302 c7 -7 12 -22 12 -35 0 -20 -5
-23 -40 -23 -36 0 -40 -3 -40 -24 0 -17 -12 -34 -36 -52 -20 -16 -38 -39 -41
-56 -5 -25 -10 -28 -44 -28 l-39 0 0 62 c0 84 14 98 97 98 59 0 63 1 63 23 0
27 17 47 40 47 9 0 21 -5 28 -12z M1931 4856 c-18 -22 -10 -107 12 -120 29
-19 52 4 55 58 3 51 -9 76 -38 76 -10 0 -23 -6 -29 -14z" fill="#F4C300" />
    <path d="M7920 8520 c-28 -36 -36 -40 -76 -40 -44 0 -45 -1 -224 -180 -179
-179 -180 -180 -180 -224 0 -40 -4 -48 -40 -76 l-40 -32 0 -88 0 -88 -40 -32
-40 -32 0 -128 0 -128 40 -32 40 -32 0 -84 0 -84 220 -220 220 -220 124 0 124
0 32 -40 32 -40 128 0 128 0 32 40 32 40 86 0 85 0 77 80 c72 75 79 80 119 80
39 0 48 6 102 59 55 55 59 63 59 104 0 41 4 48 40 77 37 29 40 36 40 80 0 44
3 51 40 80 l40 32 0 248 0 248 -40 32 -40 32 0 84 0 85 -140 139 c-137 138
-140 140 -184 140 -40 0 -48 4 -76 40 -29 37 -36 40 -80 40 -44 0 -51 3 -80
40 l-32 40 -248 0 -248 0 -32 -40z M7680 6360 l-32 -40 -87 0 c-86 0 -111 -8
-111 -37 0 -8 106 -119 235 -248 l235 -234 0 -45 c0 -40 4 -48 40 -76 37 -29
40 -36 40 -80 0 -44 3 -51 40 -80 37 -29 40 -36 40 -80 0 -44 3 -51 40 -80
l40 -32 0 -128 0 -128 40 -32 40 -32 0 -168 0 -168 -40 -32 -40 -32 0 -168 0
-168 -40 -32 -40 -32 0 -88 0 -88 -40 -32 c-36 -29 -40 -36 -40 -78 0 -44 -3
-48 -80 -122 -76 -73 -80 -79 -80 -120 0 -41 -4 -47 -80 -120 -75 -72 -80 -79
-80 -119 0 -40 -5 -47 -100 -141 -95 -96 -101 -100 -143 -100 -57 0 -77 -21
-77 -82 0 -42 -4 -49 -40 -78 -36 -29 -40 -36 -40 -77 0 -45 -2 -47 -120 -163
-116 -114 -120 -119 -120 -160 0 -41 -4 -46 -120 -160 -116 -113 -120 -119
-120 -160 0 -41 -4 -46 -160 -200 -155 -153 -160 -160 -160 -199 0 -41 -1 -43
-600 -641 -349 -349 -600 -607 -600 -618 0 -12 -11 -21 -32 -27 -26 -8 -33
-15 -33 -35 0 -20 5 -25 25 -25 20 0 27 7 35 33 9 32 10 32 71 32 61 0 63 1
94 40 29 37 36 40 80 40 44 0 51 3 80 40 l32 40 88 0 88 0 32 40 c29 37 36 40
80 40 44 0 51 3 80 40 29 37 36 40 80 40 44 0 51 3 80 40 29 37 36 40 80 40
44 0 51 3 80 40 29 37 36 40 80 40 44 0 51 3 80 40 29 37 36 40 80 40 44 0 51
3 80 40 29 36 36 40 78 40 44 0 48 3 122 80 74 77 78 80 122 80 42 0 49 4 78
40 29 36 36 40 78 40 44 0 48 3 122 80 72 75 79 80 119 80 42 0 46 3 201 160
154 156 159 160 200 160 41 0 46 4 200 160 153 155 159 160 199 160 40 0 47 5
221 180 175 174 180 181 180 221 0 40 5 46 160 199 157 155 160 159 160 201 0
40 5 47 80 119 77 74 80 78 80 122 0 42 4 49 40 78 37 29 40 36 40 80 0 44 3
51 40 80 37 29 40 36 40 80 0 44 3 51 40 80 37 29 40 36 40 80 0 44 3 51 40
80 l40 32 0 88 0 88 40 32 40 32 0 168 0 168 40 32 40 32 0 328 0 328 -40 32
-40 32 0 88 0 88 -40 32 -40 32 0 86 0 85 -80 77 c-75 72 -80 79 -80 119 0 40
-5 47 -100 141 -94 95 -101 100 -141 100 -40 0 -47 5 -119 80 l-77 80 -85 0
-86 0 -32 40 -32 40 -408 0 -408 0 -32 -40z" fill="#D9282B" />
    <path d="M4560 9080 c-28 -36 -36 -40 -76 -40 l-44 0 -220 -220 -220 -220 0
-84 0 -84 -40 -32 -40 -32 0 -288 0 -288 40 -32 c37 -29 40 -36 40 -80 0 -44
3 -51 40 -80 36 -28 40 -36 40 -76 0 -44 3 -48 100 -144 94 -95 101 -100 141
-100 40 0 47 -5 119 -80 l77 -80 125 0 126 0 32 -40 32 -40 88 0 88 0 32 40
32 40 128 0 128 0 32 40 c28 36 36 40 76 40 44 0 47 2 184 140 136 135 140
141 140 181 0 40 5 47 80 119 l80 77 0 125 0 126 40 32 c37 29 40 36 40 80 0
44 -3 51 -40 80 l-40 32 0 128 0 128 -40 32 c-37 29 -40 36 -40 80 0 44 -3 51
-40 80 -36 28 -40 36 -40 76 0 44 -3 48 -100 144 -96 97 -100 100 -144 100
-40 0 -48 4 -76 40 -29 37 -36 40 -80 40 -44 0 -51 3 -80 40 l-32 40 -328 0
-328 0 -32 -40z M4160 6680 l-32 -40 -168 0 -168 0 -32 -40 -32 -40 -88 0 -88
0 -32 -40 c-29 -37 -36 -40 -80 -40 -44 0 -51 -3 -80 -40 -29 -37 -36 -40 -80
-40 -44 0 -51 -3 -80 -40 -29 -37 -36 -40 -80 -40 -44 0 -51 -3 -80 -40 -29
-37 -36 -40 -80 -40 -44 0 -51 -3 -80 -40 -29 -36 -36 -40 -77 -40 -41 0 -49
-4 -104 -59 -53 -54 -59 -64 -59 -101 0 -41 -4 -46 -160 -200 -160 -158 -160
-158 -160 -203 0 -41 -4 -48 -40 -77 -37 -29 -40 -36 -40 -80 0 -44 -3 -51
-40 -80 l-40 -32 0 -88 0 -88 -40 -32 -40 -32 0 -128 0 -128 -40 -32 -40 -32
0 -288 0 -288 40 -32 40 -32 0 -88 0 -88 40 -32 40 -32 0 -88 0 -88 40 -32
c36 -29 40 -36 40 -78 0 -44 3 -48 80 -122 77 -74 80 -78 80 -122 0 -42 4 -49
40 -78 37 -29 40 -36 40 -79 0 -61 20 -81 82 -81 42 0 49 -4 78 -40 l32 -40
368 0 368 0 32 40 32 40 125 0 125 0 59 59 c53 54 59 63 59 102 0 40 -5 47
-80 119 -76 73 -80 79 -80 120 0 41 -4 47 -80 120 l-80 77 0 85 0 86 -40 32
-40 32 0 128 0 129 -35 27 c-19 14 -35 34 -35 44 0 10 16 30 35 44 l35 27 0
129 0 128 40 32 c36 28 40 36 40 76 0 44 2 47 140 184 l139 140 85 0 84 0 32
40 32 40 208 0 208 0 32 -40 c29 -36 36 -40 78 -40 44 0 48 -3 122 -80 74 -77
78 -80 122 -80 42 0 49 -4 78 -40 29 -36 36 -40 77 -40 45 0 47 2 163 120
l118 120 85 0 85 0 32 40 32 40 208 0 208 0 32 -40 c28 -36 36 -40 76 -40 44
0 45 -1 224 -180 l180 -179 0 -85 0 -84 40 -32 40 -32 0 -168 0 -168 -40 -32
-40 -32 0 -88 0 -88 -40 -32 c-37 -29 -40 -36 -40 -80 0 -44 -3 -51 -40 -80
-37 -29 -40 -36 -40 -80 0 -44 -3 -52 -36 -76 -19 -15 -38 -39 -40 -54 -4 -19
-15 -29 -37 -36 -23 -6 -34 -17 -41 -40 -7 -22 -18 -33 -40 -40 -22 -6 -34
-18 -40 -40 -7 -22 -18 -33 -40 -40 -22 -6 -34 -18 -40 -40 -7 -22 -18 -33
-40 -40 -22 -6 -34 -18 -40 -40 -7 -22 -18 -33 -40 -40 -22 -6 -34 -18 -40
-40 -7 -22 -18 -33 -40 -40 -22 -6 -34 -18 -40 -40 -7 -22 -18 -33 -40 -40
-22 -6 -34 -18 -40 -40 -7 -22 -18 -33 -40 -40 -23 -7 -34 -18 -41 -41 -9 -32
-10 -33 -68 -33 l-60 0 -58 -61 c-33 -33 -59 -68 -59 -78 0 -10 -12 -20 -32
-26 -25 -8 -35 -18 -43 -42 -9 -33 -10 -33 -72 -33 -53 0 -64 -3 -77 -22 -9
-12 -16 -30 -16 -38 0 -9 -14 -20 -32 -25 -25 -8 -35 -18 -43 -43 -15 -51 -40
-41 -125 48 -73 76 -79 80 -120 80 -41 0 -47 4 -120 80 -73 76 -79 80 -120 80
-41 0 -47 4 -120 80 l-77 80 -165 0 -166 0 -32 -40 -32 -40 -168 0 -168 0 -32
-40 -32 -40 -327 0 c-333 0 -351 -2 -351 -38 0 -7 70 -82 155 -167 150 -148
155 -155 155 -194 0 -41 4 -46 300 -341 297 -298 300 -300 342 -300 39 0 46
-5 118 -80 l77 -80 165 0 166 0 32 -40 32 -40 88 0 88 0 32 -40 32 -40 205 0
205 0 59 -59 c54 -55 59 -63 59 -104 0 -75 5 -77 242 -77 235 0 238 1 238 82
0 57 21 78 79 78 39 0 48 5 97 55 30 30 54 60 54 66 0 6 -34 44 -75 84 -70 67
-75 74 -75 115 0 41 -4 46 -120 160 -117 115 -120 119 -120 162 0 75 40 91 84
33 l27 -35 128 0 c148 0 161 6 161 79 0 39 6 48 59 102 55 55 63 59 104 59 41
0 48 4 77 40 l32 40 168 0 168 0 32 40 32 40 84 0 85 0 99 100 c97 96 100 100
100 144 0 40 4 48 40 76 39 31 40 33 40 96 0 57 2 64 20 64 11 0 61 42 120 99
95 94 100 101 100 141 0 41 4 47 120 160 118 116 120 118 120 163 0 41 4 48
40 77 37 29 40 36 40 80 0 44 3 51 40 80 37 29 40 36 40 80 0 44 3 51 40 80
l40 32 0 128 0 128 40 32 40 32 0 488 0 488 -40 32 -40 32 0 88 0 88 -40 32
c-37 29 -40 36 -40 80 0 44 -3 51 -40 80 -36 28 -40 36 -40 76 l0 44 -300 300
c-297 298 -300 300 -342 300 -39 0 -46 5 -118 80 -74 77 -78 80 -122 80 -42 0
-49 4 -78 40 l-32 40 -88 0 -88 0 -32 40 -32 40 -128 0 -128 0 -32 40 -32 40
-168 0 -168 0 -32 40 -32 40 -688 0 -688 0 -32 -40z m845 -445 c68 -71 74 -75
115 -75 60 0 80 -20 80 -81 0 -43 -3 -50 -40 -79 l-40 -32 0 -86 c0 -106 -11
-122 -81 -122 -43 0 -50 3 -79 40 -29 37 -36 40 -80 40 -44 0 -52 -3 -76 -35
-14 -19 -34 -35 -43 -35 -35 0 -41 21 -41 151 l0 128 -35 27 c-19 14 -35 34
-35 43 0 33 22 41 109 41 104 0 121 11 121 80 0 47 13 70 38 70 8 0 47 -34 87
-75z m995 -275 c29 -37 36 -40 79 -40 48 0 71 -13 71 -38 0 -8 -34 -47 -75
-87 -71 -68 -75 -74 -75 -116 0 -76 -40 -92 -84 -34 -24 31 -32 35 -73 35 -77
0 -83 12 -83 158 0 161 1 162 121 162 l87 0 32 -40z m-1996 -5 c24 -31 32 -35
73 -35 77 0 83 -12 83 -158 0 -161 -1 -162 -121 -162 l-88 0 -27 -35 c-14 -19
-34 -35 -43 -35 -33 0 -41 22 -41 111 l0 88 -35 27 c-19 14 -35 33 -35 40 0
20 171 192 191 193 9 1 29 -15 43 -34z m2220 -2537 c15 -25 -3 -52 -38 -56
-19 -2 -26 -9 -26 -24 0 -29 -28 -58 -57 -58 -27 0 -31 -25 -7 -58 12 -18 25
-22 64 -22 44 0 51 3 80 40 21 27 40 40 56 40 19 0 24 5 24 24 0 44 60 64 68
23 5 -25 -16 -47 -44 -47 -24 0 -24 -1 -24 -102 0 -123 -9 -138 -81 -138 -43
0 -51 -4 -75 -35 -14 -19 -34 -35 -44 -35 -10 0 -30 16 -44 35 l-27 35 -105 0
c-100 0 -104 -1 -104 -22 0 -29 -28 -58 -57 -58 -17 0 -23 -6 -23 -22 0 -29
-28 -58 -57 -58 -17 0 -23 -6 -23 -22 0 -29 -28 -58 -57 -58 -17 0 -23 -6 -23
-22 0 -29 -28 -58 -57 -58 -17 0 -23 -6 -23 -22 0 -29 -28 -58 -57 -58 -22 0
-23 -4 -23 -64 0 -62 1 -66 35 -92 19 -14 35 -33 35 -40 0 -8 -24 -39 -54 -69
-54 -55 -54 -55 -115 -55 -55 0 -61 -2 -61 -21 0 -12 -25 -45 -59 -80 l-59
-59 -123 0 c-146 0 -159 6 -159 81 0 43 4 51 36 75 19 15 38 39 40 54 4 19 15
29 37 36 24 7 34 17 42 42 l9 32 78 0 78 0 0 38 c0 34 3 39 33 47 24 8 34 18
42 43 l9 32 78 0 c73 0 78 1 78 22 0 29 28 58 57 58 20 0 23 5 23 40 l0 40 40
0 40 0 0 40 0 40 40 0 40 0 0 40 0 40 40 0 40 0 0 40 0 40 40 0 c40 0 40 0 40
38 0 34 3 39 33 47 23 7 34 18 41 41 7 22 18 33 40 40 23 7 34 18 41 42 8 29
13 32 47 32 38 0 38 0 38 40 l0 40 40 0 40 0 0 41 c0 38 2 40 26 37 15 -2 32
-11 38 -20z m804 -240 c7 -7 12 -45 12 -99 l0 -87 -40 -32 c-39 -31 -40 -33
-40 -96 0 -58 -2 -64 -21 -64 -12 0 -36 -16 -53 -35 -18 -19 -38 -35 -44 -35
-15 0 -272 255 -272 270 0 6 24 35 54 65 49 51 57 55 99 55 41 0 48 -4 77 -40
29 -36 36 -40 78 -40 62 0 82 20 82 80 0 48 13 70 40 70 9 0 21 -5 28 -12z
M5200 2456 c0 -17 -12 -34 -35 -52 -64 -48 -42 -84 52 -84 l63 0 0 64 c0 56
-3 67 -22 80 -34 24 -58 20 -58 -8z M4494 1016 c-10 -26 3 -46 34 -52 21 -4
31 -14 38 -37 6 -23 17 -34 40 -41 22 -7 33 -18 40 -40 7 -24 15 -31 34 -31
20 0 25 5 25 25 0 19 -7 27 -31 34 -22 7 -33 18 -40 40 -6 22 -18 34 -40 40
-22 7 -33 18 -40 40 -10 35 -50 49 -60 22z M4974 696 c-10 -26 4 -48 28 -44
17 2 23 10 23 28 0 18 -6 26 -23 28 -13 2 -25 -3 -28 -12z M4814 536 c-10 -26
4 -48 28 -44 17 2 23 10 23 28 0 18 -6 26 -23 28 -13 2 -25 -3 -28 -12z M4974
536 c-10 -26 4 -48 28 -44 17 2 23 10 23 28 0 18 -6 26 -23 28 -13 2 -25 -3
-28 -12z" fill="#0033A0" />
    <path d="M4742 9268 c-6 -6 -12 -20 -12 -29 0 -35 23 -40 195 -37 147 3 169 5
179 21 8 12 8 22 0 35 -10 15 -32 17 -180 20 -123 2 -173 -1 -182 -10z M4496
9178 c-9 -12 -16 -30 -16 -40 0 -15 -9 -18 -64 -18 -56 0 -67 -3 -80 -22 -9
-12 -16 -30 -16 -38 0 -9 -14 -20 -32 -25 -24 -7 -35 -18 -42 -41 -7 -22 -18
-33 -40 -40 -22 -6 -34 -18 -40 -40 -7 -22 -18 -33 -40 -40 -22 -6 -34 -18
-40 -40 -7 -22 -18 -33 -40 -40 -24 -7 -31 -15 -31 -34 0 -20 5 -25 25 -25 19
0 27 7 34 31 7 22 18 33 40 40 22 6 34 18 40 40 7 22 18 33 40 40 22 6 34 18
40 40 7 22 18 33 40 40 23 7 34 18 41 42 9 32 10 32 72 32 53 0 64 3 77 22 9
12 16 30 16 40 0 14 11 18 66 20 51 2 70 7 78 21 19 30 -4 52 -62 55 -43 3
-53 0 -66 -20z M5222 9188 c-16 -16 -15 -43 2 -57 8 -7 35 -11 62 -9 54 3 77
26 58 56 -14 21 -103 29 -122 10z M5454 9096 c-10 -26 3 -46 34 -52 21 -4 31
-14 38 -37 7 -25 15 -32 34 -32 20 0 25 5 25 25 0 19 -7 27 -31 34 -22 7 -33
18 -40 40 -10 35 -50 49 -60 22z M5774 8776 c-10 -26 3 -46 34 -52 21 -4 31
-14 38 -37 7 -25 15 -32 34 -32 20 0 25 5 25 25 0 19 -7 27 -31 34 -22 7 -33
18 -40 40 -10 35 -50 49 -60 22z M1296 8618 c-9 -12 -16 -30 -16 -38 0 -9 -14
-20 -32 -25 -26 -8 -33 -15 -33 -35 0 -20 5 -25 25 -25 20 0 27 7 34 32 10 31
11 32 74 35 49 2 68 7 76 21 19 30 -4 52 -62 55 -43 3 -53 0 -66 -20z M1942
8628 c-16 -16 -15 -43 2 -57 8 -7 35 -11 62 -9 54 3 77 26 58 56 -14 21 -103
29 -122 10z M7776 8618 c-9 -12 -16 -30 -16 -38 0 -9 -14 -20 -32 -25 -24 -7
-35 -18 -42 -41 -7 -22 -18 -33 -40 -40 -24 -7 -31 -15 -31 -34 0 -20 5 -25
25 -25 19 0 27 7 34 31 7 22 18 33 40 40 23 7 34 18 40 41 l10 32 104 3 c87 3
107 6 116 21 8 12 8 22 0 35 -9 14 -28 18 -102 20 -84 3 -91 1 -106 -20z
M8422 8628 c-7 -7 -12 -19 -12 -28 0 -33 22 -40 125 -40 l101 0 9 -32 c8 -26
15 -33 35 -33 20 0 25 5 25 25 0 20 -7 27 -32 35 -19 5 -33 16 -33 25 0 8 -7
26 -16 38 -14 20 -24 22 -103 22 -54 0 -91 -4 -99 -12z M3934 8616 c-10 -26 4
-48 28 -44 17 2 23 10 23 28 0 18 -6 26 -23 28 -13 2 -25 -3 -28 -12z M2174
8536 c-10 -26 3 -46 34 -52 21 -4 31 -14 38 -37 7 -25 15 -32 34 -32 20 0 25
5 25 25 0 19 -7 27 -31 34 -22 7 -33 18 -40 40 -10 35 -50 49 -60 22z M5931
8536 c-18 -22 -10 -107 12 -120 29 -19 52 4 55 58 3 51 -9 76 -38 76 -10 0
-23 -6 -29 -14z M1051 8451 c-6 -11 -11 -26 -11 -33 0 -8 -15 -18 -32 -23 -24
-7 -35 -18 -42 -41 -7 -22 -18 -33 -40 -40 -24 -7 -31 -15 -31 -34 0 -20 5
-25 25 -25 19 0 27 7 34 31 7 22 18 33 40 40 22 6 34 18 40 40 7 22 18 33 40
40 24 7 31 15 31 34 0 33 -39 41 -54 11z M3852 8458 c-7 -7 -12 -39 -12 -75 0
-54 -3 -63 -18 -63 -10 0 -28 -7 -40 -16 -20 -14 -22 -24 -22 -104 l0 -89 -35
-27 c-19 -14 -35 -33 -35 -41 0 -18 95 -113 113 -113 33 0 37 23 37 207 0 169
1 183 18 183 10 0 28 7 40 16 17 12 22 25 22 63 0 49 -12 71 -40 71 -9 0 -21
-5 -28 -12z M8814 8456 c-10 -26 3 -46 34 -52 21 -4 31 -14 38 -37 6 -23 17
-34 40 -41 22 -7 33 -18 40 -40 6 -22 18 -34 40 -40 22 -7 33 -18 40 -40 7
-24 15 -31 34 -31 20 0 25 5 25 25 0 19 -7 27 -31 34 -22 7 -33 18 -40 40 -6
22 -18 34 -40 40 -22 7 -33 18 -40 40 -6 22 -18 34 -40 40 -22 7 -33 18 -40
40 -10 35 -50 49 -60 22z M6011 8296 c-8 -9 -11 -56 -9 -141 3 -109 6 -129 21
-139 12 -8 22 -8 35 0 14 10 17 30 20 139 3 132 -3 155 -38 155 -10 0 -23 -6
-29 -14z M2494 8216 c-10 -26 4 -46 35 -52 29 -6 30 -8 33 -72 2 -49 7 -68 21
-76 30 -19 52 4 55 62 3 43 0 53 -20 66 -12 9 -30 16 -38 16 -9 0 -20 14 -25
33 -11 36 -50 51 -61 23z M7374 8216 c-10 -26 4 -48 28 -44 17 2 23 10 23 28
0 18 -6 26 -23 28 -13 2 -25 -3 -28 -12z M814 8136 c-10 -26 4 -48 28 -44 17
2 23 10 23 28 0 18 -6 26 -23 28 -13 2 -25 -3 -28 -12z M7294 8056 c-10 -26 4
-48 28 -44 17 2 23 10 23 28 0 18 -6 26 -23 28 -13 2 -25 -3 -28 -12z M9131
8056 c-18 -22 -10 -107 12 -120 29 -19 52 4 55 58 3 51 -9 76 -38 76 -10 0
-23 -6 -29 -14z M731 7976 c-18 -22 -10 -107 12 -120 29 -19 52 4 55 58 3 51
-9 76 -38 76 -10 0 -23 -6 -29 -14z M2651 7896 c-18 -22 -10 -107 12 -120 29
-19 52 4 55 58 3 51 -9 76 -38 76 -10 0 -23 -6 -29 -14z M3852 7818 c-7 -7
-12 -33 -12 -59 0 -38 5 -51 22 -63 12 -9 30 -16 40 -16 15 0 18 -9 18 -64 0
-56 3 -67 22 -80 12 -9 30 -16 38 -16 9 0 20 -14 25 -32 7 -24 18 -35 41 -42
22 -7 33 -18 40 -40 7 -24 15 -31 34 -31 20 0 25 5 25 25 0 19 -7 27 -31 34
-22 7 -33 18 -40 40 -7 23 -18 34 -41 41 -33 9 -33 10 -33 72 0 53 -3 64 -22
77 -12 9 -30 16 -40 16 -15 0 -18 9 -18 63 0 64 -11 87 -40 87 -9 0 -21 -5
-28 -12z M5931 7816 c-18 -22 -10 -107 12 -120 29 -19 52 4 55 58 3 51 -9 76
-38 76 -10 0 -23 -6 -29 -14z M7211 7816 c-18 -22 -10 -107 12 -120 29 -19 52
4 55 58 3 51 -9 76 -38 76 -10 0 -23 -6 -29 -14z M9211 7816 c-8 -9 -11 -66
-9 -181 3 -147 5 -169 21 -179 12 -8 22 -8 35 0 15 10 17 32 20 179 3 173 -2
195 -38 195 -10 0 -23 -6 -29 -14z M2737 7662 c-11 -12 -17 -36 -17 -64 0 -42
-4 -49 -40 -78 l-40 -32 0 -102 0 -102 -32 -9 c-26 -8 -33 -15 -33 -35 0 -20
5 -25 25 -25 20 0 27 7 35 33 6 20 16 32 27 32 9 0 62 45 118 99 l100 99 0 85
c0 69 -3 87 -18 100 -26 24 -104 23 -125 -1z M5854 7576 c-10 -26 4 -48 28
-44 17 2 23 10 23 28 0 18 -6 26 -23 28 -13 2 -25 -3 -28 -12z M7212 7498 c-8
-8 -12 -54 -12 -139 0 -121 1 -129 22 -143 12 -9 30 -16 38 -16 9 0 20 -14 25
-32 7 -24 18 -35 41 -42 22 -7 33 -18 40 -40 7 -24 15 -31 34 -31 20 0 25 5
25 25 0 19 -7 27 -31 34 -22 7 -33 18 -40 40 -7 23 -18 34 -41 41 l-33 9 0
141 c0 144 -5 165 -40 165 -9 0 -21 -5 -28 -12z M731 7416 c-18 -22 -10 -107
12 -120 29 -19 52 4 55 58 3 51 -9 76 -38 76 -10 0 -23 -6 -29 -14z M9134
7336 c-10 -26 4 -48 28 -44 17 2 23 10 23 28 0 18 -6 26 -23 28 -13 2 -25 -3
-28 -12z M4254 7256 c-10 -26 3 -46 34 -52 21 -4 31 -14 38 -37 7 -25 15 -32
34 -32 20 0 25 5 25 25 0 19 -7 27 -31 34 -22 7 -33 18 -40 40 -10 35 -50 49
-60 22z M814 7176 c-10 -26 4 -48 28 -44 17 2 23 10 23 28 0 18 -6 26 -23 28
-13 2 -25 -3 -28 -12z M5454 7176 c-10 -26 4 -48 28 -44 17 2 23 10 23 28 0
18 -6 26 -23 28 -13 2 -25 -3 -28 -12z M9051 7171 c-6 -11 -11 -26 -11 -33 0
-8 -15 -18 -32 -23 -26 -8 -33 -15 -33 -35 0 -20 5 -25 25 -25 19 0 27 7 34
31 7 22 18 33 40 40 24 7 31 15 31 34 0 33 -39 41 -54 11z M2491 7091 c-6 -11
-11 -26 -11 -33 0 -8 -15 -18 -32 -23 -24 -7 -35 -18 -42 -41 -7 -22 -18 -33
-40 -40 -22 -6 -34 -18 -40 -40 -7 -22 -18 -33 -40 -40 -24 -7 -31 -15 -31
-34 0 -20 5 -25 25 -25 19 0 27 7 34 31 7 22 18 33 40 40 22 6 34 18 40 40 7
22 18 33 40 40 22 6 34 18 40 40 7 22 18 33 40 40 24 7 31 15 31 34 0 33 -39
41 -54 11z M4494 7096 c-10 -26 4 -48 28 -44 17 2 23 10 23 28 0 18 -6 26 -23
28 -13 2 -25 -3 -28 -12z M5294 7096 c-10 -26 4 -48 28 -44 17 2 23 10 23 28
0 18 -6 26 -23 28 -13 2 -25 -3 -28 -12z M4742 7028 c-6 -6 -12 -20 -12 -29 0
-35 23 -40 195 -37 147 3 169 5 179 21 8 12 8 22 0 35 -10 15 -32 17 -180 20
-123 2 -173 -1 -182 -10z M894 7016 c-10 -26 3 -46 34 -52 21 -4 31 -14 38
-37 7 -24 17 -34 42 -42 18 -5 32 -16 32 -25 0 -8 7 -26 16 -38 13 -19 24 -22
80 -22 55 0 64 -3 64 -18 0 -10 7 -28 16 -40 13 -19 24 -22 80 -22 55 0 64 -3
64 -18 0 -10 7 -28 16 -40 12 -17 25 -22 63 -22 78 0 93 -34 36 -86 -19 -17
-35 -41 -35 -52 0 -19 -7 -21 -66 -24 -51 -2 -70 -7 -78 -20 -19 -31 4 -53 62
-56 43 -3 53 0 66 20 9 12 16 30 16 40 0 17 22 18 360 18 346 0 360 -1 360
-19 0 -10 8 -28 18 -40 15 -20 25 -22 106 -19 72 2 91 6 100 21 8 12 8 22 0
35 -9 14 -29 17 -118 20 -93 2 -106 5 -106 20 0 10 -7 28 -16 40 -14 20 -24
22 -103 22 -54 0 -91 4 -99 12 -20 20 -13 46 18 68 31 22 38 48 18 68 -9 9
-93 12 -315 12 -284 0 -303 1 -303 18 0 10 -7 28 -16 40 -13 19 -24 22 -80 22
-55 0 -64 3 -64 18 0 10 -7 28 -16 40 -13 19 -24 22 -77 22 -62 0 -63 0 -72
33 -7 23 -18 34 -41 41 -22 7 -33 18 -40 40 -10 35 -50 49 -60 22z M4742 6868
c-16 -16 -15 -43 2 -57 9 -8 76 -11 221 -9 185 3 209 5 219 21 8 12 8 22 0 35
-10 15 -34 17 -220 20 -155 2 -213 -1 -222 -10z M7614 6856 c-10 -26 4 -46 36
-52 19 -4 30 -13 30 -23 0 -9 7 -27 16 -39 13 -20 23 -23 66 -20 58 3 81 25
62 56 -8 13 -27 18 -76 20 -63 3 -64 4 -74 35 -10 36 -49 50 -60 23z M8731
6851 c-6 -11 -11 -27 -11 -35 0 -13 -13 -16 -64 -16 -56 0 -67 -3 -80 -22 -9
-12 -16 -30 -16 -40 0 -16 -21 -18 -306 -20 -280 -3 -308 -5 -318 -20 -8 -13
-8 -23 0 -35 10 -16 38 -18 300 -21 285 -2 289 -2 307 19 9 12 17 30 17 40 0
17 8 19 64 19 56 0 67 3 80 22 9 12 16 30 16 38 0 9 14 20 33 25 25 8 32 15
32 35 0 33 -39 41 -54 11z M3936 6778 c-9 -12 -16 -30 -16 -40 0 -16 -13 -18
-144 -18 -138 0 -146 -1 -160 -22 -9 -12 -16 -30 -16 -40 0 -15 -9 -18 -64
-18 -56 0 -67 -3 -80 -22 -9 -12 -16 -30 -16 -40 0 -14 -11 -18 -66 -20 -51
-2 -70 -7 -78 -20 -19 -31 4 -53 62 -56 43 -3 53 0 66 20 9 12 16 30 16 40 0
15 9 18 64 18 56 0 67 3 80 22 9 12 16 30 16 40 0 16 13 18 144 18 138 0 146
1 160 22 9 12 16 30 16 40 0 16 20 18 266 20 242 3 268 5 278 21 8 12 8 22 0
35 -10 15 -36 17 -262 20 -250 2 -251 2 -266 -20z M5382 6788 c-16 -16 -15
-43 2 -57 9 -8 76 -11 221 -9 185 3 209 5 219 21 8 12 8 22 0 35 -10 15 -34
17 -220 20 -155 2 -213 -1 -222 -10z M2094 6776 c-10 -26 4 -48 28 -44 17 2
23 10 23 28 0 18 -6 26 -23 28 -13 2 -25 -3 -28 -12z M5942 6708 c-6 -6 -12
-20 -12 -29 0 -32 25 -40 115 -37 71 2 90 6 99 21 8 12 8 22 0 35 -9 14 -28
18 -100 20 -61 2 -93 -1 -102 -10z M6262 6628 c-7 -7 -12 -19 -12 -28 0 -33
22 -40 127 -40 92 0 103 -2 103 -18 0 -10 7 -28 16 -40 13 -19 24 -22 80 -22
55 0 64 -3 64 -18 0 -10 7 -28 16 -40 13 -19 24 -22 77 -22 62 0 63 0 72 -32
7 -24 18 -35 41 -42 22 -7 33 -18 40 -40 7 -24 15 -31 34 -31 20 0 25 5 25 25
0 19 -7 27 -31 34 -22 7 -33 18 -40 40 -7 23 -18 34 -41 41 -19 5 -33 16 -33
25 0 8 -7 26 -16 38 -13 19 -24 22 -80 22 -55 0 -64 3 -64 18 0 10 -7 28 -16
40 -13 19 -24 22 -80 22 -55 0 -64 3 -64 18 0 10 -7 28 -16 40 -14 20 -24 22
-103 22 -54 0 -91 -4 -99 -12z M7942 6548 c-6 -6 -12 -20 -12 -29 0 -35 23
-40 195 -37 147 3 169 5 179 21 8 12 8 22 0 35 -10 15 -32 17 -180 20 -123 2
-173 -1 -182 -10z M7542 6468 c-6 -6 -12 -20 -12 -29 0 -32 25 -40 115 -37 71
2 90 6 99 21 8 12 8 22 0 35 -9 14 -28 18 -100 20 -61 2 -93 -1 -102 -10z
M8502 6468 c-7 -7 -12 -19 -12 -28 0 -33 22 -40 127 -40 92 0 103 -2 103 -18
0 -10 7 -28 16 -40 13 -19 24 -22 80 -22 55 0 64 -3 64 -18 0 -10 7 -28 16
-40 13 -19 24 -22 77 -22 62 0 63 0 72 -32 7 -24 18 -35 41 -42 22 -7 33 -18
40 -40 6 -22 18 -34 40 -40 22 -7 33 -18 40 -40 7 -24 15 -31 34 -31 20 0 25
5 25 25 0 19 -7 27 -31 34 -22 7 -33 18 -40 40 -6 22 -18 34 -40 40 -22 7 -33
18 -40 40 -7 23 -18 34 -41 41 -19 5 -33 16 -33 25 0 8 -7 26 -16 38 -13 19
-24 22 -80 22 -55 0 -64 3 -64 18 0 10 -7 28 -16 40 -13 19 -24 22 -80 22 -55
0 -64 3 -64 18 0 10 -7 28 -16 40 -14 20 -24 22 -103 22 -54 0 -91 -4 -99 -12z
M3134 6456 c-10 -26 4 -48 28 -44 17 2 23 10 23 28 0 18 -6 26 -23 28 -13 2
-25 -3 -28 -12z M1134 6376 c-10 -26 4 -48 28 -44 17 2 23 10 23 28 0 18 -6
26 -23 28 -13 2 -25 -3 -28 -12z M2494 6376 c-10 -26 4 -48 28 -44 17 2 23 10
23 28 0 18 -6 26 -23 28 -13 2 -25 -3 -28 -12z M2971 6371 c-6 -11 -11 -27
-11 -35 0 -13 -22 -16 -146 -18 -127 -3 -148 -5 -158 -20 -8 -13 -8 -23 0 -35
10 -15 30 -18 140 -21 122 -3 130 -2 147 19 9 12 17 29 17 38 0 10 13 21 33
26 25 8 32 15 32 35 0 33 -39 41 -54 11z M7371 6371 c-6 -11 -11 -26 -11 -33
0 -8 -15 -18 -32 -23 -26 -8 -33 -15 -33 -35 0 -20 5 -25 25 -25 19 0 27 7 34
31 7 22 18 33 40 40 24 7 31 15 31 34 0 33 -39 41 -54 11z M971 6291 c-6 -11
-11 -26 -11 -33 0 -8 -15 -18 -32 -23 -26 -8 -33 -15 -33 -35 0 -20 5 -25 25
-25 19 0 27 7 34 31 7 22 18 33 40 40 24 7 31 15 31 34 0 33 -39 41 -54 11z
M4853 6175 l-53 -53 0 -124 c0 -157 1 -158 122 -158 102 0 118 11 118 83 0 41
4 49 35 73 59 44 42 84 -35 84 -60 0 -80 21 -80 81 0 85 -33 89 -107 14z
M7134 6136 c-10 -26 3 -46 34 -52 21 -4 31 -14 38 -37 6 -23 17 -34 40 -41 22
-7 33 -18 40 -40 6 -22 18 -34 40 -40 22 -7 33 -18 40 -40 6 -22 18 -34 40
-40 22 -7 33 -18 40 -40 7 -24 15 -31 34 -31 20 0 25 5 25 25 0 19 -7 27 -31
34 -22 7 -33 18 -40 40 -6 22 -18 34 -40 40 -22 7 -33 18 -40 40 -6 22 -18 34
-40 40 -22 7 -33 18 -40 40 -6 22 -18 34 -40 40 -22 7 -33 18 -40 40 -10 35
-50 49 -60 22z M7454 6136 c-10 -26 3 -46 34 -52 21 -4 31 -14 38 -37 6 -23
17 -34 40 -41 22 -7 33 -18 40 -40 7 -23 18 -34 42 -41 32 -9 32 -10 32 -72 0
-53 3 -64 22 -77 12 -9 30 -16 38 -16 9 0 20 -14 25 -32 7 -24 18 -35 41 -42
22 -7 33 -18 40 -40 7 -24 15 -31 34 -31 20 0 25 5 25 25 0 19 -7 27 -31 34
-22 7 -33 18 -40 40 -7 23 -18 34 -41 41 -33 9 -33 10 -33 72 0 53 -3 64 -22
77 -12 9 -30 16 -38 16 -9 0 -20 14 -25 33 -7 23 -18 34 -41 41 -22 7 -33 18
-40 40 -6 22 -18 34 -40 40 -22 7 -33 18 -40 40 -10 35 -50 49 -60 22z M3898
5860 c-53 -53 -58 -62 -58 -103 0 -66 18 -77 122 -77 112 0 118 6 118 122 0
102 -12 118 -81 117 -40 0 -49 -5 -101 -59z M5782 5908 c-21 -21 -13 -45 23
-72 31 -24 35 -32 35 -75 0 -61 20 -81 82 -81 67 0 78 18 78 122 0 112 -7 118
-121 118 -53 0 -90 -5 -97 -12z M571 5891 c-6 -11 -11 -26 -11 -33 0 -8 -15
-18 -32 -23 -26 -8 -33 -15 -33 -35 0 -20 5 -25 25 -25 19 0 27 7 34 31 7 22
18 33 40 40 24 7 31 15 31 34 0 33 -39 41 -54 11z M9294 5896 c-10 -26 4 -46
36 -52 30 -6 30 -7 30 -70 0 -54 3 -65 22 -78 12 -9 30 -16 40 -16 14 0 18
-11 20 -66 2 -51 7 -70 21 -78 30 -19 52 4 55 62 3 43 0 53 -20 66 -12 9 -30
16 -40 16 -15 0 -18 9 -18 64 0 56 -3 67 -22 80 -12 9 -30 16 -38 16 -9 0 -20
14 -25 33 -11 36 -50 51 -61 23z M414 5576 c-10 -26 4 -48 28 -44 17 2 23 10
23 28 0 18 -6 26 -23 28 -13 2 -25 -3 -28 -12z M7614 5576 c-10 -26 4 -48 28
-44 17 2 23 10 23 28 0 18 -6 26 -23 28 -13 2 -25 -3 -28 -12z M7916 5475
l-27 -35 -88 0 c-89 0 -111 -8 -111 -41 0 -9 16 -29 35 -43 l35 -27 0 -129 0
-128 40 -32 40 -32 0 -408 0 -408 -40 -32 -40 -32 0 -128 0 -128 -40 -32 -40
-32 0 -102 0 -102 -32 -9 c-26 -8 -33 -15 -33 -35 0 -20 5 -25 25 -25 20 0 27
7 35 33 5 18 16 32 25 32 8 0 26 7 38 16 18 12 22 25 22 64 0 44 3 51 40 80
37 29 40 36 40 80 0 44 3 51 40 80 37 29 40 36 40 80 0 44 3 51 40 80 37 29
40 36 40 80 0 44 3 51 40 80 l40 32 0 168 0 168 40 32 40 32 0 168 0 168 -40
32 -40 32 0 128 0 128 -40 32 c-37 29 -40 36 -40 79 0 78 -39 95 -84 36z
M9531 5416 c-18 -22 -10 -107 12 -120 29 -19 52 4 55 58 3 51 -9 76 -38 76
-10 0 -23 -6 -29 -14z M334 5336 c-10 -26 4 -48 28 -44 17 2 23 10 23 28 0 18
-6 26 -23 28 -13 2 -25 -3 -28 -12z M3920 5000 c-28 -36 -36 -40 -76 -40 -44
0 -47 -2 -184 -140 -138 -137 -140 -140 -140 -184 0 -40 -4 -48 -40 -76 l-40
-32 0 -248 0 -248 40 -32 40 -32 0 -86 0 -85 80 -77 c76 -72 80 -79 80 -119 0
-42 4 -47 120 -161 l120 -118 0 -122 0 -122 59 -59 59 -59 123 0 122 0 77 -80
c72 -76 79 -80 119 -80 42 0 47 -4 161 -120 116 -119 118 -120 163 -120 41 0
49 -4 73 -35 33 -44 55 -44 88 0 24 31 32 35 73 35 45 0 47 1 163 120 113 115
119 120 159 120 41 0 44 2 461 420 l420 420 0 44 c0 40 4 48 40 76 37 29 40
36 40 80 0 44 3 51 40 80 l40 32 0 288 0 288 -40 32 c-37 29 -40 36 -40 80 0
44 -3 51 -40 80 -37 29 -40 36 -40 79 0 61 -20 81 -80 81 -41 0 -47 4 -120 80
l-77 80 -285 0 -286 0 -32 -40 c-29 -37 -36 -40 -80 -40 -44 0 -51 -3 -80 -40
-29 -37 -36 -40 -79 -40 -61 0 -81 -20 -81 -82 0 -57 -21 -78 -80 -78 -41 0
-47 4 -120 80 -73 76 -79 80 -120 80 -41 0 -47 4 -120 80 l-77 80 -285 0 -286
0 -32 -40z M331 4616 c-18 -22 -10 -107 12 -120 29 -19 52 4 55 58 3 51 -9 76
-38 76 -10 0 -23 -6 -29 -14z M9531 4536 c-8 -9 -11 -46 -9 -101 2 -71 6 -90
21 -99 12 -8 22 -8 35 0 14 9 18 28 20 99 3 91 -5 115 -38 115 -10 0 -23 -6
-29 -14z M414 4216 c-10 -26 4 -48 28 -44 17 2 23 10 23 28 0 18 -6 26 -23 28
-13 2 -25 -3 -28 -12z M9451 4136 c-18 -22 -10 -107 12 -120 29 -19 52 4 55
58 3 51 -9 76 -38 76 -10 0 -23 -6 -29 -14z M491 3976 c-18 -22 -10 -107 12
-120 29 -19 52 4 55 58 3 51 -9 76 -38 76 -10 0 -23 -6 -29 -14z M9374 3896
c-10 -26 4 -48 28 -44 17 2 23 10 23 28 0 18 -6 26 -23 28 -13 2 -25 -3 -28
-12z M574 3736 c-10 -26 4 -48 28 -44 17 2 23 10 23 28 0 18 -6 26 -23 28 -13
2 -25 -3 -28 -12z M9294 3736 c-10 -26 4 -48 28 -44 17 2 23 10 23 28 0 18 -6
26 -23 28 -13 2 -25 -3 -28 -12z M654 3576 c-10 -26 4 -46 36 -52 30 -6 30 -7
30 -70 0 -54 3 -65 22 -78 12 -9 30 -16 38 -16 9 0 20 -14 25 -32 8 -26 15
-33 35 -33 20 0 25 5 25 25 0 20 -7 27 -32 35 -33 9 -33 10 -33 72 0 53 -3 64
-22 77 -12 9 -30 16 -38 16 -9 0 -20 14 -25 33 -11 36 -50 51 -61 23z M9214
3576 c-10 -26 4 -48 28 -44 17 2 23 10 23 28 0 18 -6 26 -23 28 -13 2 -25 -3
-28 -12z M9134 3416 c-10 -26 4 -48 28 -44 17 2 23 10 23 28 0 18 -6 26 -23
28 -13 2 -25 -3 -28 -12z M9051 3251 c-6 -11 -11 -26 -11 -33 0 -8 -15 -18
-32 -23 -26 -8 -33 -15 -33 -35 0 -20 5 -25 25 -25 19 0 27 7 34 31 7 22 18
33 40 40 24 7 31 15 31 34 0 33 -39 41 -54 11z M894 3176 c-10 -26 4 -46 36
-52 30 -6 30 -7 30 -70 0 -54 3 -65 22 -78 12 -9 30 -16 38 -16 9 0 20 -14 25
-32 7 -24 18 -35 41 -42 22 -7 33 -18 40 -40 6 -22 18 -34 40 -40 22 -7 33
-18 40 -40 6 -22 18 -34 40 -40 22 -7 33 -18 40 -40 6 -22 18 -34 40 -40 22
-7 33 -18 40 -40 6 -22 18 -34 40 -40 22 -7 33 -18 40 -40 6 -22 18 -34 40
-40 22 -7 33 -18 40 -40 6 -22 18 -34 40 -40 22 -7 33 -18 40 -40 6 -22 18
-34 40 -40 22 -7 33 -18 40 -40 6 -22 18 -34 40 -40 22 -7 33 -18 40 -40 6
-22 18 -34 40 -40 22 -7 33 -18 40 -40 6 -22 18 -34 40 -40 22 -7 33 -18 40
-40 6 -22 18 -34 40 -40 22 -7 33 -18 40 -40 6 -22 18 -34 40 -40 22 -7 33
-18 40 -40 6 -22 18 -34 40 -40 22 -7 33 -18 40 -40 7 -23 18 -34 42 -41 18
-5 32 -16 32 -25 0 -8 7 -26 16 -38 13 -19 24 -22 77 -22 62 0 63 0 72 -32 8
-26 15 -33 35 -33 20 0 25 5 25 25 0 20 -7 27 -32 35 -19 5 -33 16 -33 25 0 8
-7 26 -16 38 -13 19 -24 22 -77 22 -62 0 -63 0 -72 33 -7 23 -18 34 -41 41
-22 7 -33 18 -40 40 -6 22 -18 34 -40 40 -22 7 -33 18 -40 40 -6 22 -18 34
-40 40 -22 7 -33 18 -40 40 -6 22 -18 34 -40 40 -22 7 -33 18 -40 40 -6 22
-18 34 -40 40 -22 7 -33 18 -40 40 -6 22 -18 34 -40 40 -22 7 -33 18 -40 40
-6 22 -18 34 -40 40 -22 7 -33 18 -40 40 -6 22 -18 34 -40 40 -22 7 -33 18
-40 40 -6 22 -18 34 -40 40 -22 7 -33 18 -40 40 -6 22 -18 34 -40 40 -22 7
-33 18 -40 40 -6 22 -18 34 -40 40 -22 7 -33 18 -40 40 -6 22 -18 34 -40 40
-22 7 -33 18 -40 40 -6 22 -18 34 -40 40 -22 7 -33 18 -40 40 -6 22 -18 34
-40 40 -22 7 -33 18 -40 40 -7 23 -18 34 -41 41 -33 9 -33 10 -33 72 0 53 -3
64 -22 77 -12 9 -30 16 -38 16 -9 0 -20 14 -25 33 -11 36 -50 51 -61 23z
M8891 3011 c-6 -11 -11 -26 -11 -33 0 -8 -15 -18 -32 -23 -25 -8 -35 -18 -43
-42 -5 -19 -16 -33 -25 -33 -8 0 -26 -7 -38 -16 -19 -13 -22 -24 -22 -77 0
-62 0 -63 -32 -72 -26 -8 -33 -15 -33 -35 0 -20 5 -25 25 -25 20 0 27 7 35 33
5 18 16 32 25 32 8 0 26 7 38 16 19 13 22 24 22 77 0 62 0 63 33 72 23 7 34
18 41 41 7 22 18 33 40 40 24 7 31 15 31 34 0 33 -39 41 -54 11z M8091 2211
c-6 -11 -11 -26 -11 -33 0 -8 -15 -18 -32 -23 -24 -7 -35 -18 -42 -41 -7 -22
-18 -33 -40 -40 -22 -6 -34 -18 -40 -40 -7 -22 -18 -33 -40 -40 -24 -7 -31
-15 -31 -34 0 -20 5 -25 25 -25 19 0 27 7 34 31 7 22 18 33 40 40 22 6 34 18
40 40 7 22 18 33 40 40 22 6 34 18 40 40 7 22 18 33 40 40 24 7 31 15 31 34 0
33 -39 41 -54 11z M7611 1811 c-6 -11 -11 -26 -11 -33 0 -8 -15 -18 -32 -23
-24 -7 -35 -18 -42 -41 -7 -22 -18 -33 -40 -40 -24 -7 -31 -15 -31 -34 0 -20
5 -25 25 -25 19 0 27 7 34 31 7 22 18 33 40 40 22 6 34 18 40 40 7 22 18 33
40 40 24 7 31 15 31 34 0 33 -39 41 -54 11z M2574 1576 c-10 -26 3 -46 34 -52
21 -4 31 -14 38 -37 7 -25 15 -32 34 -32 20 0 25 5 25 25 0 19 -7 27 -31 34
-22 7 -33 18 -40 40 -10 35 -50 49 -60 22z M7291 1571 c-6 -11 -11 -27 -11
-35 0 -13 -13 -16 -64 -16 -56 0 -67 -3 -80 -22 -9 -12 -16 -30 -16 -38 0 -9
-14 -20 -32 -25 -26 -8 -33 -15 -33 -35 0 -20 5 -25 25 -25 20 0 27 7 35 33 9
32 10 32 72 32 53 0 64 3 77 22 9 12 16 30 16 38 0 9 14 20 33 25 25 8 32 15
32 35 0 33 -39 41 -54 11z M2814 1416 c-10 -26 4 -46 36 -52 19 -4 30 -13 30
-23 0 -9 7 -27 16 -39 13 -19 24 -22 80 -22 55 0 64 -3 64 -18 0 -10 7 -28 16
-40 13 -19 24 -22 77 -22 62 0 63 0 72 -32 8 -26 15 -33 35 -33 20 0 25 5 25
25 0 20 -7 27 -32 35 -19 5 -33 16 -33 25 0 8 -7 26 -16 38 -13 19 -24 22 -80
22 -55 0 -64 3 -64 18 0 10 -7 28 -16 40 -13 19 -24 22 -77 22 -62 0 -63 0
-72 33 -11 36 -50 51 -61 23z M6891 1331 c-6 -11 -11 -27 -11 -35 0 -13 -13
-16 -64 -16 -56 0 -67 -3 -80 -22 -9 -12 -16 -30 -16 -38 0 -9 -14 -20 -32
-25 -26 -8 -33 -15 -33 -35 0 -20 5 -25 25 -25 20 0 27 7 35 33 9 32 10 32 72
32 53 0 64 3 77 22 9 12 16 30 16 38 0 9 14 20 33 25 25 8 32 15 32 35 0 33
-39 41 -54 11z M3374 1096 c-10 -26 4 -46 36 -52 19 -4 30 -13 30 -23 0 -9 7
-27 16 -39 13 -20 23 -23 66 -20 58 3 81 25 62 56 -8 13 -27 18 -76 20 -63 3
-64 4 -74 35 -10 36 -49 50 -60 23z M6494 1096 c-10 -26 4 -48 28 -44 17 2 23
10 23 28 0 18 -6 26 -23 28 -13 2 -25 -3 -28 -12z M6331 1011 c-6 -11 -11 -27
-11 -35 0 -12 -15 -16 -66 -18 -51 -2 -70 -7 -78 -20 -19 -31 4 -53 62 -56 43
-3 53 0 66 20 9 12 16 30 16 38 0 9 14 20 33 25 25 8 32 15 32 35 0 33 -39 41
-54 11z M3694 936 c-10 -26 4 -48 28 -44 17 2 23 10 23 28 0 18 -6 26 -23 28
-13 2 -25 -3 -28 -12z M3854 856 c-10 -26 4 -48 28 -44 17 2 23 10 23 28 0 18
-6 26 -23 28 -13 2 -25 -3 -28 -12z M6014 856 c-10 -26 4 -48 28 -44 17 2 23
10 23 28 0 18 -6 26 -23 28 -13 2 -25 -3 -28 -12z M4014 776 c-10 -26 4 -48
28 -44 17 2 23 10 23 28 0 18 -6 26 -23 28 -13 2 -25 -3 -28 -12z M5854 776
c-10 -26 4 -48 28 -44 17 2 23 10 23 28 0 18 -6 26 -23 28 -13 2 -25 -3 -28
-12z M4174 696 c-10 -26 4 -48 28 -44 17 2 23 10 23 28 0 18 -6 26 -23 28 -13
2 -25 -3 -28 -12z M5694 696 c-10 -26 4 -48 28 -44 17 2 23 10 23 28 0 18 -6
26 -23 28 -13 2 -25 -3 -28 -12z M4334 616 c-10 -26 4 -48 28 -44 17 2 23 10
23 28 0 18 -6 26 -23 28 -13 2 -25 -3 -28 -12z M5454 616 c-10 -26 4 -48 28
-44 17 2 23 10 23 28 0 18 -6 26 -23 28 -13 2 -25 -3 -28 -12z M4494 536 c-10
-26 4 -48 28 -44 17 2 23 10 23 28 0 18 -6 26 -23 28 -13 2 -25 -3 -28 -12z
M5294 536 c-10 -26 4 -48 28 -44 17 2 23 10 23 28 0 18 -6 26 -23 28 -13 2
-25 -3 -28 -12z M4734 456 c-10 -26 4 -48 28 -44 17 2 23 10 23 28 0 18 -6 26
-23 28 -13 2 -25 -3 -28 -12z M5054 456 c-10 -26 4 -48 28 -44 17 2 23 10 23
28 0 18 -6 26 -23 28 -13 2 -25 -3 -28 -12z" fill="#FFFFFF" />
  </g>
</svg>